PathFileType	4	(X/Y/Z)	s01c0403.trc
DataRate	CameraRate	NumFrames	NumMarkers	Units	OrigDataRate	OrigDataStartFrame	OrigNumFrames
200	200	4	47	mm	200	250	2000
Frame#	Time	racr			lacr			c7			jug			rlel			rdr			llel			ldr			lic			ric			lasi			rasi			rpsi			lpsi			rgt			lgt			rth1			rth2			rth3			rth4			rlfc			rsh1			rsh2			rsh3			rsh4			rlmal			rmmal			rcal			rtoe			rmt5			lth1			lth2			lth4			lth3			llfc			lsh1			lsh2			lsh3			lsh4			llmal			lmmal			lcal			ltoe			lmt5			SBIKE			LBIKE			RBIKE			
		X1	Y1	Z1	X2	Y2	Z2	X3	Y3	Z3	X4	Y4	Z4	X5	Y5	Z5	X6	Y6	Z6	X7	Y7	Z7	X8	Y8	Z8	X9	Y9	Z9	X10	Y10	Z10	X11	Y11	Z11	X12	Y12	Z12	X13	Y13	Z13	X14	Y14	Z14	X15	Y15	Z15	X16	Y16	Z16	X17	Y17	Z17	X18	Y18	Z18	X19	Y19	Z19	X20	Y20	Z20	X21	Y21	Z21	X22	Y22	Z22	X23	Y23	Z23	X24	Y24	Z24	X25	Y25	Z25	X26	Y26	Z26	X27	Y27	Z27	X28	Y28	Z28	X29	Y29	Z29	X30	Y30	Z30	X31	Y31	Z31	X32	Y32	Z32	X33	Y33	Z33	X34	Y34	Z34	X35	Y35	Z35	X36	Y36	Z36	X37	Y37	Z37	X38	Y38	Z38	X39	Y39	Z39	X40	Y40	Z40	X41	Y41	Z41	X42	Y42	Z42	X43	Y43	Z43	X44	Y44	Z44	X45	Y45	Z45	X46	Y46	Z46	X47	Y47	Z47	
250	1.2500	455.529816	1365.715698	-106.830391	459.234436	1356.744141	-427.311798	410.405579	1424.512695	-264.550995	0.000000	0.000000	-0.000000	546.377502	1106.055786	-18.230194	708.725464	896.509583	-56.610188	535.965454	1090.500122	-511.500671	710.108826	905.118591	-437.890503	111.666069	1160.518066	-437.302826	78.991066	1142.895630	-104.856544	91.965782	1107.573242	-407.647186	105.589020	1093.290283	-128.532364	-53.553452	1172.688721	-206.349091	-56.604099	1177.201050	-311.641083	21.352264	1017.158630	-74.242661	47.411552	1033.783813	-461.407013	101.244995	904.332031	-59.740368	158.447922	843.032654	-63.189171	214.191406	773.081665	-78.025116	200.581207	878.870911	-74.652191	249.172302	671.389526	-101.464142	168.954178	584.094666	-69.671158	128.228699	509.744202	-71.379204	77.853462	436.381378	-82.989304	171.143738	484.405365	-105.836052	6.355420	329.022522	-101.337807	54.641167	332.310120	-177.422699	-44.250759	306.794800	-157.612717	210.525970	215.812622	-136.766891	100.348190	215.360199	-70.453720	152.770065	968.312988	-455.345398	241.688599	962.919067	-455.024536	246.730972	1017.280457	-446.053375	324.475220	948.819885	-434.560699	429.528503	891.774170	-409.678711	354.560455	806.450073	-437.107697	322.947327	726.182556	-431.863037	289.997345	647.818237	-418.979492	375.126465	707.687134	-403.452240	241.208038	530.178833	-404.147614	268.702301	538.603088	-317.939484	188.408051	492.651154	-362.481262	464.627991	471.148468	-371.724945	359.688538	451.515167	-436.391663	-226.016876	892.190613	-254.704895	-12.958465	84.810928	-458.160217	-23.038958	80.767746	-57.961788	
251	1.2550	455.474396	1365.815796	-106.880081	459.084351	1356.717529	-427.298615	410.287109	1424.608765	-264.652954	0.000000	0.000000	-0.000000	546.488770	1106.207153	-18.388704	708.759521	896.555298	-56.786682	535.981262	1090.635132	-511.336334	710.218811	905.163696	-438.136993	111.580719	1160.059814	-437.341858	78.967781	1142.927734	-105.007118	91.986115	1107.532227	-407.717072	105.533974	1093.271851	-128.688721	-53.594654	1172.654053	-206.463440	-56.629406	1177.108521	-311.780090	21.316956	1017.204102	-74.295532	47.395443	1033.654785	-461.526947	101.278389	904.442810	-59.759663	158.526230	843.183289	-63.145065	214.360336	773.299377	-77.937614	200.648361	879.072876	-74.620522	249.369049	671.576355	-101.262878	169.007462	584.395935	-69.553253	128.125183	510.112701	-71.325050	77.632889	436.883575	-82.941498	171.026184	484.696960	-105.699425	5.918494	329.712952	-101.321205	54.038158	333.084503	-177.479797	-44.707104	307.421417	-157.600586	210.049973	216.400467	-136.748611	99.845200	215.924149	-70.482376	152.712128	968.087891	-455.457458	241.653427	962.682129	-455.128693	246.756882	1017.021851	-446.183044	324.432892	948.539673	-434.627716	429.476440	891.493164	-409.697601	354.616486	806.020081	-437.175385	323.164093	725.755310	-431.912201	290.306702	647.376404	-419.018066	375.339813	707.376099	-403.436737	241.686523	529.587830	-404.123016	266.277435	537.479187	-317.075592	188.924179	492.112793	-362.448578	465.244659	470.581207	-371.769409	360.190369	450.951752	-436.403137	-226.023224	892.192261	-254.717453	-12.961462	84.806465	-458.152893	-23.036421	80.762535	-57.958714	
252	1.2600	455.403687	1365.918701	-106.946068	458.914978	1356.723511	-427.268250	410.148041	1424.712036	-264.741760	0.000000	0.000000	-0.000000	546.634705	1106.398315	-18.534821	708.808228	896.601013	-56.971008	536.028259	1090.799194	-511.203705	710.331482	905.196045	-438.374512	111.563431	1159.859619	-437.438477	78.947037	1142.960205	-105.138130	92.115280	1107.448486	-408.056549	105.479271	1093.266357	-128.816879	-53.643433	1172.608398	-206.567108	-56.678669	1177.012939	-311.918182	21.259468	1017.247498	-74.376740	47.432968	1033.463379	-461.628601	101.330963	904.546265	-59.787933	158.620758	843.325012	-63.134144	214.519089	773.476440	-77.858673	200.726013	879.250671	-74.573997	249.610779	671.759949	-101.075630	169.030090	584.713806	-69.414314	127.987228	510.501587	-71.254189	77.359329	437.383484	-82.899094	170.895432	485.041077	-105.585533	5.524640	330.268341	-101.296303	53.621811	333.609222	-177.460022	-45.180668	308.095215	-157.642075	209.513336	216.908691	-136.793991	99.354347	216.497482	-70.494827	152.589233	967.866211	-455.527435	241.617920	962.441284	-455.240082	246.329437	1016.513184	-446.044525	324.381042	948.245178	-434.723572	429.428070	891.231995	-409.727936	354.693451	805.641113	-437.213135	323.394989	725.252075	-431.952515	290.640747	646.827576	-419.048615	375.572662	707.070679	-403.454224	242.195847	529.074524	-404.179749	269.771545	537.392578	-317.937317	190.053787	491.515381	-361.801208	466.189148	469.935822	-372.038147	360.723785	450.437775	-436.452454	-226.035675	892.190613	-254.733765	-12.961466	84.818878	-458.162567	-23.037630	80.748413	-57.965439	
253	1.2650	455.322906	1365.973633	-106.999931	458.770996	1356.741943	-427.223358	409.955780	1424.818481	-264.812988	0.000000	0.000000	-0.000000	546.748108	1106.575317	-18.651533	708.836243	896.637939	-57.166107	536.070374	1091.038696	-511.080597	710.427124	905.256165	-438.542389	111.549606	1159.573975	-437.543365	78.896530	1142.982422	-105.266312	92.102066	1107.421875	-408.159576	105.439674	1093.232056	-128.917603	-53.692162	1172.544434	-206.709000	-56.721397	1176.916748	-312.061188	21.201283	1017.266907	-74.473534	47.435097	1033.342407	-461.766144	101.362358	904.631714	-59.811977	158.700592	843.444031	-63.094749	214.670197	773.640808	-77.795586	200.796875	879.405579	-74.558983	249.814331	671.931946	-100.918419	169.097427	585.039673	-69.294556	127.839523	510.911194	-71.194344	77.062996	437.853668	-82.876266	170.714462	485.331635	-105.466560	5.120117	330.942383	-101.316360	53.249355	334.055176	-177.458893	-45.680710	308.684570	-157.594864	208.958908	217.440231	-136.806274	98.821976	217.068573	-70.472931	152.548599	967.678589	-455.666931	241.581482	962.201721	-455.359314	246.644669	1016.463318	-446.554535	324.343079	947.957275	-434.782959	429.388702	890.887573	-409.797577	354.778046	805.228027	-437.272736	323.652802	724.786133	-432.006104	290.992767	646.255432	-419.100342	375.794586	706.736755	-403.506378	242.721909	528.569397	-404.199432	270.390137	536.920288	-317.936554	190.636124	491.053772	-361.842133	466.733765	469.289856	-372.022186	361.232361	449.786835	-436.440491	-226.039658	892.174133	-254.763504	-12.971132	84.796043	-458.156982	-23.047979	80.769775	-57.977375	
